<svg width="142" height="103" viewBox="0 0 142 103" fill="none" xmlns="http://www.w3.org/2000/svg">
<path d="M111.629 31.7088L72.4664 0.318525C71.9387 -0.106175 71.084 -0.106175 70.5562 0.318525L31.3919 31.7088C30.864 32.1335 30.8748 32.8113 31.3919 33.2416C31.6564 33.4609 32.002 33.5728 32.3449 33.575V33.5794H41.8002V63.9159C41.8002 64.2157 41.9514 64.484 42.1957 64.6796C42.44 64.8772 42.7775 65 43.1501 65H62.0499C62.795 65 63.3998 64.5134 63.3998 63.9159V42.2497H79.5998V63.9159C79.5998 64.5123 80.2045 65 80.9498 65H99.8495C100.595 65 101.2 64.5134 101.2 63.9159V33.5794H110.715C111.069 33.5848 111.402 33.4729 111.629 33.2426C112.088 32.7701 112.157 32.1335 111.629 31.7088Z" fill="white"/>
<path d="M10.6327 88V74H15.8727C17.0594 74 18.0794 74.1933 18.9327 74.58C19.7861 74.9533 20.4394 75.5 20.8927 76.22C21.3594 76.9267 21.5927 77.7867 21.5927 78.8C21.5927 79.7867 21.3594 80.64 20.8927 81.36C20.4394 82.0667 19.7861 82.6133 18.9327 83C18.0794 83.3733 17.0594 83.56 15.8727 83.56H11.4527L12.1127 82.88V88H10.6327ZM20.1927 88L16.5927 82.92H18.1927L21.8127 88H20.1927ZM12.1127 83L11.4527 82.3H15.8327C17.2327 82.3 18.2927 81.9933 19.0127 81.38C19.7461 80.7667 20.1127 79.9067 20.1127 78.8C20.1127 77.68 19.7461 76.8133 19.0127 76.2C18.2927 75.5867 17.2327 75.28 15.8327 75.28H11.4527L12.1127 74.58V83ZM32.8059 80.26H40.2059V81.52H32.8059V80.26ZM32.9659 86.72H41.3859V88H31.4859V74H41.0859V75.28H32.9659V86.72ZM49.0248 88L55.4248 74H56.8848L63.2848 88H61.7248L55.8448 74.86H56.4448L50.5648 88H49.0248ZM51.5448 84.26L51.9848 83.06H60.1248L60.5648 84.26H51.5448ZM72.0007 88V74H73.4807V86.72H81.3207V88H72.0007ZM103.132 80.26H110.532V81.52H103.132V80.26ZM103.292 86.72H111.712V88H101.812V74H111.412V75.28H103.292V86.72ZM119.351 88L125.751 74H127.211L133.611 88H132.051L126.171 74.86H126.771L120.891 88H119.351ZM121.871 84.26L122.311 83.06H130.451L130.891 84.26H121.871Z" fill="white"/>
<path d="M10.6327 88H9.63273V89H10.6327V88ZM10.6327 74V73H9.63273V74H10.6327ZM18.9327 74.58L18.52 75.4909L18.5319 75.4962L18.9327 74.58ZM20.8927 76.22L20.0465 76.7528L20.0523 76.762L20.0583 76.7711L20.8927 76.22ZM20.8927 81.36L20.0536 80.8161L20.051 80.82L20.8927 81.36ZM18.9327 83L19.3336 83.9162L19.3455 83.9109L18.9327 83ZM11.4527 83.56L10.7352 82.8635L9.08857 84.56H11.4527V83.56ZM12.1127 82.88H13.1127V80.4139L11.3952 82.1835L12.1127 82.88ZM12.1127 88V89H13.1127V88H12.1127ZM20.1927 88L19.3768 88.5782L19.6758 89H20.1927V88ZM16.5927 82.92V81.92H14.6584L15.7768 83.4982L16.5927 82.92ZM18.1927 82.92L19.0071 82.3397L18.7081 81.92H18.1927V82.92ZM21.8127 88V89H23.7533L22.6271 87.4197L21.8127 88ZM12.1127 83L11.3851 83.686L13.1127 85.5183V83H12.1127ZM11.4527 82.3V81.3H9.13548L10.7251 82.986L11.4527 82.3ZM19.0127 81.38L18.3712 80.6129L18.3643 80.6188L19.0127 81.38ZM19.0127 76.2L18.3642 76.9613L18.3712 76.9671L19.0127 76.2ZM11.4527 75.28L10.7251 74.594L9.13547 76.28H11.4527V75.28ZM12.1127 74.58H13.1127V72.0617L11.3851 73.894L12.1127 74.58ZM11.6327 88V74H9.63273V88H11.6327ZM10.6327 75H15.8727V73H10.6327V75ZM15.8727 75C16.9537 75 17.826 75.1764 18.52 75.4909L19.3455 73.6691C18.3328 73.2103 17.1651 73 15.8727 73V75ZM18.5319 75.4962C19.2199 75.7972 19.71 76.2184 20.0465 76.7528L21.739 75.6872C21.1688 74.7816 20.3522 74.1095 19.3336 73.6638L18.5319 75.4962ZM20.0583 76.7711C20.3973 77.2844 20.5927 77.9435 20.5927 78.8H22.5927C22.5927 77.6298 22.3215 76.5689 21.7272 75.6689L20.0583 76.7711ZM20.5927 78.8C20.5927 79.6233 20.4002 80.2813 20.0536 80.8161L21.7319 81.9039C22.3186 80.9987 22.5927 79.95 22.5927 78.8H20.5927ZM20.051 80.82C19.7137 81.3459 19.2186 81.7726 18.52 82.0891L19.3455 83.9109C20.3535 83.4541 21.1651 82.7875 21.7344 81.9L20.051 80.82ZM18.5319 82.0838C17.8345 82.3889 16.9578 82.56 15.8727 82.56V84.56C17.161 84.56 18.3243 84.3577 19.3336 83.9162L18.5319 82.0838ZM15.8727 82.56H11.4527V84.56H15.8727V82.56ZM12.1703 84.2565L12.8303 83.5765L11.3952 82.1835L10.7352 82.8635L12.1703 84.2565ZM11.1127 82.88V88H13.1127V82.88H11.1127ZM12.1127 87H10.6327V89H12.1127V87ZM21.0086 87.4218L17.4086 82.3418L15.7768 83.4982L19.3768 88.5782L21.0086 87.4218ZM16.5927 83.92H18.1927V81.92H16.5927V83.92ZM17.3784 83.5003L20.9984 88.5803L22.6271 87.4197L19.0071 82.3397L17.3784 83.5003ZM21.8127 87H20.1927V89H21.8127V87ZM12.8403 82.314L12.1803 81.614L10.7251 82.986L11.3851 83.686L12.8403 82.314ZM11.4527 83.3H15.8327V81.3H11.4527V83.3ZM15.8327 83.3C17.3596 83.3 18.6908 82.9679 19.6612 82.1412L18.3643 80.6188C17.8947 81.0188 17.1059 81.3 15.8327 81.3V83.3ZM19.6543 82.1471C20.6519 81.3127 21.1127 80.1508 21.1127 78.8H19.1127C19.1127 79.6625 18.8402 80.2206 18.3712 80.6129L19.6543 82.1471ZM21.1127 78.8C21.1127 77.4403 20.6548 76.2697 19.6543 75.4329L18.3712 76.9671C18.8373 77.357 19.1127 77.9197 19.1127 78.8H21.1127ZM19.6612 75.4388C18.6908 74.6121 17.3596 74.28 15.8327 74.28V76.28C17.1059 76.28 17.8947 76.5612 18.3643 76.9612L19.6612 75.4388ZM15.8327 74.28H11.4527V76.28H15.8327V74.28ZM12.1803 75.966L12.8403 75.266L11.3851 73.894L10.7251 74.594L12.1803 75.966ZM11.1127 74.58V83H13.1127V74.58H11.1127ZM32.8059 80.26V79.26H31.8059V80.26H32.8059ZM40.2059 80.26H41.2059V79.26H40.2059V80.26ZM40.2059 81.52V82.52H41.2059V81.52H40.2059ZM32.8059 81.52H31.8059V82.52H32.8059V81.52ZM32.9659 86.72H31.9659V87.72H32.9659V86.72ZM41.3859 86.72H42.3859V85.72H41.3859V86.72ZM41.3859 88V89H42.3859V88H41.3859ZM31.4859 88H30.4859V89H31.4859V88ZM31.4859 74V73H30.4859V74H31.4859ZM41.0859 74H42.0859V73H41.0859V74ZM41.0859 75.28V76.28H42.0859V75.28H41.0859ZM32.9659 75.28V74.28H31.9659V75.28H32.9659ZM32.8059 81.26H40.2059V79.26H32.8059V81.26ZM39.2059 80.26V81.52H41.2059V80.26H39.2059ZM40.2059 80.52H32.8059V82.52H40.2059V80.52ZM33.8059 81.52V80.26H31.8059V81.52H33.8059ZM32.9659 87.72H41.3859V85.72H32.9659V87.72ZM40.3859 86.72V88H42.3859V86.72H40.3859ZM41.3859 87H31.4859V89H41.3859V87ZM32.4859 88V74H30.4859V88H32.4859ZM31.4859 75H41.0859V73H31.4859V75ZM40.0859 74V75.28H42.0859V74H40.0859ZM41.0859 74.28H32.9659V76.28H41.0859V74.28ZM31.9659 75.28V86.72H33.9659V75.28H31.9659ZM49.0248 88L48.1153 87.5842L47.4681 89H49.0248V88ZM55.4248 74V73H54.7824L54.5153 73.5842L55.4248 74ZM56.8848 74L57.7942 73.5842L57.5272 73H56.8848V74ZM63.2848 88V89H64.8414L64.1942 87.5842L63.2848 88ZM61.7248 88L60.812 88.4085L61.0767 89H61.7248V88ZM55.8448 74.86V73.86H54.3017L54.932 75.2685L55.8448 74.86ZM56.4448 74.86L57.3575 75.2685L57.9878 73.86H56.4448V74.86ZM50.5648 88V89H51.2128L51.4775 88.4085L50.5648 88ZM51.5448 84.26L50.6059 83.9157L50.113 85.26H51.5448V84.26ZM51.9848 83.06V82.06H51.2863L51.0459 82.7157L51.9848 83.06ZM60.1248 83.06L61.0636 82.7157L60.8232 82.06H60.1248V83.06ZM60.5648 84.26V85.26H61.9965L61.5036 83.9157L60.5648 84.26ZM49.9342 88.4158L56.3342 74.4158L54.5153 73.5842L48.1153 87.5842L49.9342 88.4158ZM55.4248 75H56.8848V73H55.4248V75ZM55.9753 74.4158L62.3753 88.4158L64.1942 87.5842L57.7942 73.5842L55.9753 74.4158ZM63.2848 87H61.7248V89H63.2848V87ZM62.6375 87.5915L56.7575 74.4515L54.932 75.2685L60.812 88.4085L62.6375 87.5915ZM55.8448 75.86H56.4448V73.86H55.8448V75.86ZM55.532 74.4515L49.652 87.5915L51.4775 88.4085L57.3575 75.2685L55.532 74.4515ZM50.5648 87H49.0248V89H50.5648V87ZM52.4836 84.6043L52.9236 83.4043L51.0459 82.7157L50.6059 83.9157L52.4836 84.6043ZM51.9848 84.06H60.1248V82.06H51.9848V84.06ZM59.1859 83.4043L59.6259 84.6043L61.5036 83.9157L61.0636 82.7157L59.1859 83.4043ZM60.5648 83.26H51.5448V85.26H60.5648V83.26ZM72.0007 88H71.0007V89H72.0007V88ZM72.0007 74V73H71.0007V74H72.0007ZM73.4807 74H74.4807V73H73.4807V74ZM73.4807 86.72H72.4807V87.72H73.4807V86.72ZM81.3207 86.72H82.3207V85.72H81.3207V86.72ZM81.3207 88V89H82.3207V88H81.3207ZM73.0007 88V74H71.0007V88H73.0007ZM72.0007 75H73.4807V73H72.0007V75ZM72.4807 74V86.72H74.4807V74H72.4807ZM73.4807 87.72H81.3207V85.72H73.4807V87.72ZM80.3207 86.72V88H82.3207V86.72H80.3207ZM81.3207 87H72.0007V89H81.3207V87ZM103.132 80.26V79.26H102.132V80.26H103.132ZM110.532 80.26H111.532V79.26H110.532V80.26ZM110.532 81.52V82.52H111.532V81.52H110.532ZM103.132 81.52H102.132V82.52H103.132V81.52ZM103.292 86.72H102.292V87.72H103.292V86.72ZM111.712 86.72H112.712V85.72H111.712V86.72ZM111.712 88V89H112.712V88H111.712ZM101.812 88H100.812V89H101.812V88ZM101.812 74V73H100.812V74H101.812ZM111.412 74H112.412V73H111.412V74ZM111.412 75.28V76.28H112.412V75.28H111.412ZM103.292 75.28V74.28H102.292V75.28H103.292ZM103.132 81.26H110.532V79.26H103.132V81.26ZM109.532 80.26V81.52H111.532V80.26H109.532ZM110.532 80.52H103.132V82.52H110.532V80.52ZM104.132 81.52V80.26H102.132V81.52H104.132ZM103.292 87.72H111.712V85.72H103.292V87.72ZM110.712 86.72V88H112.712V86.72H110.712ZM111.712 87H101.812V89H111.712V87ZM102.812 88V74H100.812V88H102.812ZM101.812 75H111.412V73H101.812V75ZM110.412 74V75.28H112.412V74H110.412ZM111.412 74.28H103.292V76.28H111.412V74.28ZM102.292 75.28V86.72H104.292V75.28H102.292ZM119.351 88L118.442 87.5842L117.795 89H119.351V88ZM125.751 74V73H125.109L124.842 73.5842L125.751 74ZM127.211 74L128.121 73.5842L127.854 73H127.211V74ZM133.611 88V89H135.168L134.521 87.5842L133.611 88ZM132.051 88L131.139 88.4085L131.403 89H132.051V88ZM126.171 74.86V73.86H124.628L125.259 75.2685L126.171 74.86ZM126.771 74.86L127.684 75.2685L128.314 73.86H126.771V74.86ZM120.891 88V89H121.539L121.804 88.4085L120.891 88ZM121.871 84.26L120.932 83.9157L120.44 85.26H121.871V84.26ZM122.311 83.06V82.06H121.613L121.372 82.7157L122.311 83.06ZM130.451 83.06L131.39 82.7157L131.15 82.06H130.451V83.06ZM130.891 84.26V85.26H132.323L131.83 83.9157L130.891 84.26ZM120.261 88.4158L126.661 74.4158L124.842 73.5842L118.442 87.5842L120.261 88.4158ZM125.751 75H127.211V73H125.751V75ZM126.302 74.4158L132.702 88.4158L134.521 87.5842L128.121 73.5842L126.302 74.4158ZM133.611 87H132.051V89H133.611V87ZM132.964 87.5915L127.084 74.4515L125.259 75.2685L131.139 88.4085L132.964 87.5915ZM126.171 75.86H126.771V73.86H126.171V75.86ZM125.859 74.4515L119.979 87.5915L121.804 88.4085L127.684 75.2685L125.859 74.4515ZM120.891 87H119.351V89H120.891V87ZM122.81 84.6043L123.25 83.4043L121.372 82.7157L120.932 83.9157L122.81 84.6043ZM122.311 84.06H130.451V82.06H122.311V84.06ZM129.512 83.4043L129.952 84.6043L131.83 83.9157L131.39 82.7157L129.512 83.4043ZM130.891 83.26H121.871V85.26H130.891V83.26Z" fill="white"/>
</svg>
